<svg width="25" height="24" viewBox="0 0 25 24" xmlns="http://www.w3.org/2000/svg">
<path d="M9.51 13.5C9.51 13.7761 9.28614 14 9.01 14H3C2.72386 14 2.5 14.2239 2.5 14.5V15.5C2.5 15.7761 2.72386 16 3 16H9.01C9.28614 16 9.51 16.2239 9.51 16.5V17.7908C9.51 18.2365 10.0492 18.4595 10.364 18.1439L13.1478 15.3531C13.3424 15.158 13.3424 14.842 13.1478 14.6469L10.364 11.8561C10.0492 11.5405 9.51 11.7635 9.51 12.2092V13.5ZM14.636 12.1439C14.9508 12.4595 15.49 12.2365 15.49 11.7908V10.5C15.49 10.2239 15.7139 10 15.99 10H22C22.2761 10 22.5 9.77614 22.5 9.5V8.5C22.5 8.22386 22.2761 8 22 8H15.99C15.7139 8 15.49 7.77614 15.49 7.5V6.20925C15.49 5.76349 14.9508 5.54055 14.636 5.85614L11.8522 8.64689C11.6576 8.84205 11.6576 9.15795 11.8522 9.35311L14.636 12.1439Z" />
</svg>
