<svg width="18" height="18" viewBox="0 0 18 18" fill="none" xmlns="http://www.w3.org/2000/svg">
<path d="M12.5 15.5C9.99 15.5 7.82 14.08 6.74 12H11.5C12.0523 12 12.5 11.5523 12.5 11C12.5 10.4477 12.0523 10 11.5 10H6.08C6.03 9.67 6 9.34 6 9C6 8.66 6.03 8.33 6.08 8H11.5C12.0523 8 12.5 7.55228 12.5 7C12.5 6.44772 12.0523 6 11.5 6H6.74C7.82 3.92 10 2.5 12.5 2.5C13.6925 2.5 14.8137 2.82369 15.7783 3.38981C16.3481 3.72425 17.0911 3.70892 17.5583 3.24172C18.0701 2.72988 18.0513 1.8852 17.4475 1.48593C16.0274 0.546796 14.3234 0 12.5 0C8.58 0 5.26 2.51 4.02 6H1.5C0.947716 6 0.5 6.44772 0.5 7C0.5 7.55228 0.947715 8 1.5 8H3.56C3.52 8.33 3.5 8.66 3.5 9C3.5 9.34 3.52 9.67 3.56 10H1.5C0.947716 10 0.5 10.4477 0.5 11C0.5 11.5523 0.947715 12 1.5 12H4.02C5.26 15.49 8.58 18 12.5 18C14.3294 18 16.0271 17.4544 17.444 16.517C18.0493 16.1167 18.067 15.2694 17.5524 14.7577C17.0831 14.291 16.3386 14.2786 15.7684 14.6145C14.8119 15.178 13.6969 15.5 12.5 15.5Z" fill="#020A26"/>
</svg>
