<svg width="19" height="18" viewBox="0 0 19 18" fill="none" xmlns="http://www.w3.org/2000/svg">
<path d="M10.5 1C10.5 0.447715 10.0523 0 9.5 0C8.94771 0 8.5 0.447715 8.5 1V9C8.5 9.55228 8.94771 10 9.5 10C10.0523 10 10.5 9.55229 10.5 9V1ZM15.9923 2.7926C15.636 2.4226 15.0502 2.44981 14.687 2.81302C14.2722 3.22782 14.3149 3.90822 14.7086 4.34309C15.8223 5.57311 16.5 7.20603 16.5 9C16.5 12.87 13.37 16 9.5 16C5.63 16 2.5 12.87 2.5 9C2.5 7.20207 3.18074 5.5659 4.29321 4.32942C4.68248 3.89676 4.72246 3.22246 4.31093 2.81093C3.9489 2.4489 3.36497 2.42179 3.00972 2.79047C1.4552 4.40379 0.5 6.58541 0.5 9C0.5 13.97 4.53 18 9.5 18C14.47 18 18.5 13.97 18.5 9C18.5 6.58647 17.5456 4.4057 15.9923 2.7926Z" fill="#020A26"/>
</svg>
