<svg width="25" height="24" viewBox="0 0 25 24" fill="none" xmlns="http://www.w3.org/2000/svg">
<path fill-rule="evenodd" clip-rule="evenodd" d="M6.5 4C5.39543 4 4.5 4.89543 4.5 6V18C4.5 19.1046 5.39543 20 6.5 20H18.5C19.6046 20 20.5 19.1046 20.5 18V9.375C20.5 8.27043 19.6046 7.375 18.5 7.375H13.5704C12.5673 7.375 11.6306 6.8737 11.0742 6.0391L10.0117 4.4453C9.82622 4.1671 9.51399 4 9.17963 4H6.5ZM2.5 6C2.5 3.79086 4.29086 2 6.5 2H9.17963C10.1827 2 11.1194 2.5013 11.6758 3.3359L12.7383 4.9297C12.9238 5.2079 13.236 5.375 13.5704 5.375H18.5C20.7091 5.375 22.5 7.16586 22.5 9.375V18C22.5 20.2091 20.7091 22 18.5 22H6.5C4.29086 22 2.5 20.2091 2.5 18V6Z" fill="#020A26"/>
</svg>
