<svg width="27" height="18" viewBox="0 0 27 18" fill="none" xmlns="http://www.w3.org/2000/svg">
<path d="M21.6073 7.15028C21.1663 7.05142 20.796 6.7294 20.6637 6.29729C19.7234 3.2249 16.8737 1 13.5 1C10.8014 1 8.43408 2.43 7.11463 4.57349C6.93901 4.8588 6.64835 5.0554 6.31971 5.12054C3.56959 5.66564 1.5 8.09402 1.5 11C1.5 14.31 4.19 17 7.5 17H20.5C23.26 17 25.5 14.76 25.5 12C25.5 9.62232 23.8371 7.65021 21.6073 7.15028ZM16.2791 10C17.0155 10 17.3408 10.9274 16.7657 11.3874L14.1247 13.5002C13.7595 13.7924 13.2405 13.7924 12.8753 13.5002L10.2343 11.3874C9.65921 10.9274 9.98451 10 10.7209 10V10C11.1512 10 11.5 9.6512 11.5 9.22094V6C11.5 5.44772 11.9477 5 12.5 5H14.5C15.0523 5 15.5 5.44772 15.5 6V9.22094C15.5 9.6512 15.8488 10 16.2791 10V10Z" stroke="#020A26" stroke-width="2"/>
</svg>
