<svg width="25" height="24" viewBox="0 0 25 24" fill="none" xmlns="http://www.w3.org/2000/svg">
<path fill-rule="evenodd" clip-rule="evenodd" d="M12.5 10C11.3954 10 10.5 10.8954 10.5 12C10.5 13.1046 11.3954 14 12.5 14C13.6046 14 14.5 13.1046 14.5 12C14.5 10.8954 13.6046 10 12.5 10ZM8.5 12C8.5 9.79086 10.2909 8 12.5 8C14.7091 8 16.5 9.79086 16.5 12C16.5 14.2091 14.7091 16 12.5 16C10.2909 16 8.5 14.2091 8.5 12Z" fill="#020A26"/>
<path fill-rule="evenodd" clip-rule="evenodd" d="M9.22958 4.54104C9.22958 3.13766 10.3672 2 11.7706 2H13.2293C14.6327 2 15.7703 3.13766 15.7703 4.54104C15.7703 4.74442 15.9106 5.01577 16.2458 5.19782C16.3489 5.25384 16.4507 5.31209 16.5509 5.37252C16.8852 5.57406 17.1991 5.56113 17.3833 5.45569C18.6071 4.75547 20.1666 5.17332 20.8764 6.39162L21.5808 7.60076C22.2919 8.8214 21.8722 10.3877 20.6461 11.0892C20.4683 11.1909 20.3012 11.4496 20.3093 11.8346C20.3105 11.8896 20.3111 11.9448 20.3111 12C20.3111 12.0552 20.3105 12.1104 20.3093 12.1654C20.3012 12.5504 20.4683 12.8091 20.6461 12.9108C21.8722 13.6123 22.2919 15.1786 21.5808 16.3992L20.8763 17.6084C20.1666 18.8267 18.6071 19.2445 17.3833 18.5443C17.199 18.4389 16.8852 18.426 16.5509 18.6275C16.4507 18.6879 16.3489 18.7462 16.2458 18.8022C15.9106 18.9842 15.7703 19.2556 15.7703 19.459C15.7703 20.8623 14.6327 22 13.2293 22H11.7706C10.3672 22 9.22958 20.8623 9.22958 19.459C9.22958 19.2556 9.08932 18.9842 8.75412 18.8022C8.65097 18.7462 8.54924 18.6879 8.449 18.6275C8.11469 18.4259 7.80086 18.4389 7.6166 18.5443C6.39281 19.2445 4.83333 18.8267 4.12358 17.6084L3.41914 16.3992C2.70803 15.1786 3.12769 13.6123 4.35383 12.9108C4.53159 12.8091 4.69873 12.5504 4.69059 12.1654C4.68942 12.1104 4.68884 12.0553 4.68884 12C4.68884 11.9448 4.68942 11.8896 4.69059 11.8346C4.69873 11.4497 4.53158 11.191 4.35381 11.0892C3.12766 10.3877 2.70799 8.82141 3.41911 7.60077L4.12353 6.39163C4.83328 5.17333 6.39278 4.75548 7.61657 5.4557C7.80084 5.56113 8.11468 5.57407 8.44899 5.37253C8.54924 5.3121 8.65097 5.25384 8.75412 5.19782C9.08932 5.01577 9.22958 4.74442 9.22958 4.54104ZM11.7706 4C11.4718 4 11.2296 4.24223 11.2296 4.54104C11.2296 5.64708 10.5241 6.51246 9.70863 6.95535C9.63188 6.99703 9.55616 7.04039 9.48155 7.08537C8.68608 7.5649 7.58407 7.74134 6.62333 7.19163C6.35297 7.03694 6.00845 7.12925 5.85166 7.39839L5.14724 8.60754C4.99521 8.86848 5.08493 9.20332 5.34706 9.3533C6.30937 9.90391 6.70977 10.9487 6.69014 11.8769C6.68927 11.9178 6.68884 11.9589 6.68884 12C6.68884 12.0412 6.68927 12.0822 6.69014 12.1231C6.70978 13.0513 6.30938 14.0961 5.34707 14.6467C5.08496 14.7967 4.99525 15.1315 5.14726 15.3924L5.85171 16.6016C6.0085 16.8708 6.35301 16.9631 6.62336 16.8084C7.5841 16.2587 8.6861 16.4351 9.48156 16.9146C9.55617 16.9596 9.63188 17.003 9.70863 17.0447C10.5241 17.4875 11.2296 18.3529 11.2296 19.459C11.2296 19.7578 11.4718 20 11.7706 20H13.2293C13.5281 20 13.7703 19.7578 13.7703 19.459C13.7703 18.3529 14.4758 17.4875 15.2913 17.0447C15.368 17.003 15.4437 16.9596 15.5183 16.9146C16.3138 16.4351 17.4158 16.2587 18.3765 16.8084C18.6469 16.9631 18.9914 16.8708 19.1482 16.6016L19.8526 15.3924C20.0047 15.1315 19.9149 14.7967 19.6528 14.6467C18.6905 14.0961 18.2901 13.0513 18.3098 12.1231C18.3106 12.0822 18.3111 12.0412 18.3111 12C18.3111 11.9589 18.3106 11.9178 18.3098 11.8769C18.2901 10.9487 18.6905 9.9039 19.6528 9.35329C19.915 9.20331 20.0047 8.86848 19.8527 8.60753L19.1482 7.39839C18.9915 7.12924 18.6469 7.03693 18.3766 7.19162C17.4158 7.74134 16.3138 7.5649 15.5183 7.08536C15.4437 7.04039 15.368 6.99703 15.2913 6.95535C14.4758 6.51246 13.7703 5.64708 13.7703 4.54104C13.7703 4.24223 13.5281 4 13.2293 4H11.7706Z" fill="#020A26"/>
</svg>
