<svg width="25" height="24" viewBox="0 0 25 24" fill="none" xmlns="http://www.w3.org/2000/svg">
<path fill-rule="evenodd" clip-rule="evenodd" d="M12.5 4C10.9255 4 9.40461 4.65749 8.27503 5.84574C7.14381 7.03572 6.5 8.66001 6.5 10.3636C6.5 12.844 8.03632 15.2652 9.74308 17.1603C10.5789 18.0884 11.4177 18.8486 12.0484 19.3769C12.2154 19.5168 12.3673 19.64 12.5 19.7453C12.6327 19.64 12.7846 19.5168 12.9516 19.3769C13.5823 18.8486 14.4211 18.0884 15.2569 17.1603C16.9637 15.2652 18.5 12.844 18.5 10.3636C18.5 8.66001 17.8562 7.03572 16.725 5.84574C15.5954 4.65749 14.0745 4 12.5 4ZM12.5 21C11.9258 21.8187 11.9256 21.8186 11.9253 21.8184L11.9228 21.8166L11.9172 21.8127L11.8986 21.7994C11.8829 21.7882 11.8607 21.7722 11.8325 21.7517C11.7762 21.7106 11.6956 21.6511 11.5943 21.5741C11.3917 21.4203 11.1058 21.1962 10.7641 20.9101C10.0823 20.3389 9.17111 19.5139 8.25692 18.4988C6.46368 16.5076 4.5 13.6105 4.5 10.3636C4.5 8.16134 5.33118 6.0397 6.82548 4.46777C8.32141 2.89413 10.3615 2 12.5 2C14.6385 2 16.6786 2.89413 18.1745 4.46777C19.6688 6.0397 20.5 8.16134 20.5 10.3636C20.5 13.6105 18.5363 16.5076 16.7431 18.4988C15.8289 19.5139 14.9177 20.3389 14.2359 20.9101C13.8942 21.1962 13.6083 21.4203 13.4057 21.5741C13.3044 21.6511 13.2238 21.7106 13.1675 21.7517C13.1393 21.7722 13.1171 21.7882 13.1014 21.7994L13.0828 21.8127L13.0772 21.8166L13.0754 21.8179C13.0751 21.8181 13.0742 21.8187 12.5 21ZM12.5 21L13.0742 21.8187C12.7295 22.0604 12.2699 22.0601 11.9253 21.8184L12.5 21Z" fill="#020A26"/>
<path fill-rule="evenodd" clip-rule="evenodd" d="M12.5 8C11.3954 8 10.5 8.89543 10.5 10C10.5 11.1046 11.3954 12 12.5 12C13.6046 12 14.5 11.1046 14.5 10C14.5 8.89543 13.6046 8 12.5 8ZM8.5 10C8.5 7.79086 10.2909 6 12.5 6C14.7091 6 16.5 7.79086 16.5 10C16.5 12.2091 14.7091 14 12.5 14C10.2909 14 8.5 12.2091 8.5 10Z" fill="#020A26"/>
</svg>
