<svg width="17" height="20" viewBox="0 0 17 20" fill="none" xmlns="http://www.w3.org/2000/svg">
<path d="M9.00009 4.01536C8.72447 3.99838 8.5 3.77614 8.5 3.5V1.20711C8.5 0.761654 7.96143 0.538571 7.64645 0.853553L3.85355 4.64645C3.65829 4.84171 3.65829 5.15829 3.85355 5.35355L7.64645 9.14645C7.96143 9.46143 8.5 9.23835 8.5 8.79289V6.5C8.5 6.22386 8.72464 5.99782 8.99984 6.02059C12.0766 6.27517 14.5 8.85831 14.5 12C14.5 15.31 11.81 18 8.5 18C5.35831 18 2.77517 15.5766 2.52059 12.4998C2.49782 12.2246 2.27614 12 2 12H1C0.723858 12 0.498378 12.2245 0.515358 12.5001C0.773294 16.6869 4.24796 20 8.5 20C12.92 20 16.5 16.42 16.5 12C16.5 7.74796 13.1869 4.27329 9.00009 4.01536Z" fill="#020A26"/>
</svg>
