<svg width="25" height="24" viewBox="0 0 25 24" fill="none" xmlns="http://www.w3.org/2000/svg">
<path fill-rule="evenodd" clip-rule="evenodd" d="M2.5 8C2.5 5.23858 4.73858 3 7.5 3H17.5C20.2614 3 22.5 5.23858 22.5 8V17C22.5 19.7614 20.2614 22 17.5 22H7.5C4.73858 22 2.5 19.7614 2.5 17V8ZM7.5 5C5.84315 5 4.5 6.34315 4.5 8V17C4.5 18.6569 5.84315 20 7.5 20H17.5C19.1569 20 20.5 18.6569 20.5 17V8C20.5 6.34315 19.1569 5 17.5 5H7.5Z" fill="#020A26"/>
<path fill-rule="evenodd" clip-rule="evenodd" d="M8.5 2C9.05228 2 9.5 2.44772 9.5 3V6C9.5 6.55228 9.05228 7 8.5 7C7.94772 7 7.5 6.55228 7.5 6V3C7.5 2.44772 7.94772 2 8.5 2Z" fill="#020A26"/>
<path fill-rule="evenodd" clip-rule="evenodd" d="M6.5 10C6.5 9.44772 6.94772 9 7.5 9H17.5C18.0523 9 18.5 9.44772 18.5 10C18.5 10.5523 18.0523 11 17.5 11H7.5C6.94772 11 6.5 10.5523 6.5 10Z" fill="#020A26"/>
<path fill-rule="evenodd" clip-rule="evenodd" d="M15.5 17C15.5 16.4477 15.9477 16 16.5 16H17.5C18.0523 16 18.5 16.4477 18.5 17C18.5 17.5523 18.0523 18 17.5 18H16.5C15.9477 18 15.5 17.5523 15.5 17Z" fill="#020A26"/>
<path fill-rule="evenodd" clip-rule="evenodd" d="M16.5 2C17.0523 2 17.5 2.44772 17.5 3V6C17.5 6.55228 17.0523 7 16.5 7C15.9477 7 15.5 6.55228 15.5 6V3C15.5 2.44772 15.9477 2 16.5 2Z" fill="#020A26"/>
</svg>
