<svg width="25" height="24" viewBox="0 0 25 24" fill="none" xmlns="http://www.w3.org/2000/svg">
<path fill-rule="evenodd" clip-rule="evenodd" d="M5.42893 4.92893C7.23748 3.12038 9.73885 2 12.5 2C15.2611 2 17.7625 3.12038 19.5711 4.92893C21.3796 6.73748 22.5 9.23885 22.5 12C22.5 14.7611 21.3796 17.2625 19.5711 19.0711C17.7625 20.8796 15.2611 22 12.5 22C9.73885 22 7.23748 20.8796 5.42893 19.0711C3.62038 17.2625 2.5 14.7611 2.5 12C2.5 9.23885 3.62038 6.73748 5.42893 4.92893ZM12.5 4C10.2906 4 8.29196 4.89434 6.84315 6.34315C5.39434 7.79196 4.5 9.79058 4.5 12C4.5 14.2094 5.39434 16.208 6.84315 17.6569C8.29196 19.1057 10.2906 20 12.5 20C14.7094 20 16.708 19.1057 18.1569 17.6569C19.6057 16.208 20.5 14.2094 20.5 12C20.5 9.79058 19.6057 7.79196 18.1569 6.34315C16.708 4.89434 14.7094 4 12.5 4Z" fill="#020A26"/>
<path fill-rule="evenodd" clip-rule="evenodd" d="M12.5 7C13.0523 7 13.5 7.44772 13.5 8V12C13.5 12.5523 13.0523 13 12.5 13C11.9477 13 11.5 12.5523 11.5 12L11.5 8C11.5 7.44772 11.9477 7 12.5 7Z" fill="#020A26"/>
<path fill-rule="evenodd" clip-rule="evenodd" d="M11.7929 11.2929C12.1834 10.9024 12.8166 10.9024 13.2071 11.2929L15.2071 13.2929C15.5976 13.6834 15.5976 14.3166 15.2071 14.7071C14.8166 15.0976 14.1834 15.0976 13.7929 14.7071L11.7929 12.7071C11.4024 12.3166 11.4024 11.6834 11.7929 11.2929Z" fill="#020A26"/>
</svg>
