<svg width="25" height="24" viewBox="0 0 25 24" fill="none" xmlns="http://www.w3.org/2000/svg">
<path fill-rule="evenodd" clip-rule="evenodd" d="M14.3186 4.6664C13.2439 3.77787 11.7561 3.77787 10.6815 4.6664L5.29539 9.11964C4.80425 9.52572 4.5 10.1673 4.5 10.8663V17.8109C4.5 19.0784 5.45214 20 6.5 20H8.5V16.7478C8.5 14.4927 10.2341 12.5587 12.5 12.5587C14.7659 12.5587 16.5 14.4927 16.5 16.7478V20H18.5C19.5479 20 20.5 19.0784 20.5 17.8109V10.8663C20.5 10.1673 20.1958 9.52572 19.7046 9.11965L14.3186 4.6664ZM15.593 3.12502L20.979 7.57827C21.9494 8.38059 22.5 9.59705 22.5 10.8663V17.8109C22.5 20.066 20.7659 22 18.5 22H16.5C15.3954 22 14.5 21.1046 14.5 20V16.7478C14.5 15.4803 13.5479 14.5587 12.5 14.5587C11.4521 14.5587 10.5 15.4803 10.5 16.7478V20C10.5 21.1046 9.60457 22 8.5 22H6.5C4.23415 22 2.5 20.066 2.5 17.8109V10.8663C2.5 9.59705 3.05059 8.38059 4.02097 7.57827L9.40703 3.12502C11.2213 1.62499 13.7787 1.62499 15.593 3.12502Z" fill="#020A26"/>
</svg>
