<svg width="37" height="22" viewBox="0 0 37 22" fill="none" xmlns="http://www.w3.org/2000/svg">
<path d="M25.5455 1H11C5.47715 1 1 5.47715 1 11C1 16.5228 5.47715 21 11 21H25.5455C31.0683 21 35.5455 16.5228 35.5455 11C35.5455 5.47715 31.0683 1 25.5455 1Z" fill="#E8F8F4"/>
<path d="M25.5455 1.45459H11C5.72823 1.45459 1.45459 5.72824 1.45459 11C1.45459 16.2719 5.72823 20.5455 11 20.5455H25.5455C30.8173 20.5455 35.0909 16.2719 35.0909 11C35.0909 5.72824 30.8173 1.45459 25.5455 1.45459Z" stroke="#32BC9B" stroke-width="2"/>
<path d="M32.8181 11.0001C32.8181 6.98347 29.562 3.72736 25.5454 3.72736C21.5288 3.72736 18.2727 6.98347 18.2727 11.0001C18.2727 15.0167 21.5288 18.2728 25.5454 18.2728C29.562 18.2728 32.8181 15.0167 32.8181 11.0001Z" fill="#32BC9B"/>
</svg>
