<svg width="37" height="22" viewBox="0 0 37 22" fill="none" xmlns="http://www.w3.org/2000/svg">
<path d="M25.5455 1H11C5.47715 1 1 5.47715 1 11C1 16.5228 5.47715 21 11 21H25.5455C31.0683 21 35.5455 16.5228 35.5455 11C35.5455 5.47715 31.0683 1 25.5455 1Z" fill="#ECECEC"/>
<path d="M25.5455 1.45458H11C5.72823 1.45458 1.45459 5.72822 1.45459 11C1.45459 16.2718 5.72823 20.5455 11 20.5455H25.5455C30.8173 20.5455 35.0909 16.2718 35.0909 11C35.0909 5.72822 30.8173 1.45458 25.5455 1.45458Z" stroke="#C7C7C7" stroke-width="2"/>
<path d="M18.2029 10.9394C18.2029 6.92275 14.9468 3.66664 10.9302 3.66664C6.91358 3.66664 3.65747 6.92275 3.65747 10.9394C3.65747 14.956 6.91358 18.2121 10.9302 18.2121C14.9468 18.2121 18.2029 14.956 18.2029 10.9394Z" fill="#C7C7C7"/>
</svg>
