<svg width="16" height="16" viewBox="0 0 16 16" fill="none" xmlns="http://www.w3.org/2000/svg">
<path d="M8.88889 0.88889C8.88889 0.39797 8.49092 0 8 0V0C7.50908 0 7.11111 0.397969 7.11111 0.888889V8C7.11111 8.49092 7.50908 8.88889 8 8.88889V8.88889C8.49092 8.88889 8.88889 8.49092 8.88889 8V0.88889ZM13.771 2.48231C13.4543 2.15342 12.9335 2.17761 12.6107 2.50046V2.50046C12.2419 2.86918 12.2799 3.47397 12.6299 3.86053C13.6198 4.95387 14.2222 6.40536 14.2222 8C14.2222 11.44 11.44 14.2222 8 14.2222C4.56 14.2222 1.77778 11.44 1.77778 8C1.77778 6.40184 2.38288 4.94746 3.37174 3.84837C3.71776 3.46379 3.7533 2.86441 3.38749 2.4986V2.4986C3.06569 2.1768 2.54664 2.1527 2.23086 2.48042C0.849063 3.91448 0 5.85369 0 8C0 12.4178 3.58222 16 8 16C12.4178 16 16 12.4178 16 8C16 5.85464 15.1517 3.91618 13.771 2.48231Z" fill="#32BC9B"/>
</svg>
